<svg xmlns="http://www.w3.org/2000/svg" xmlns:xlink="http://www.w3.org/1999/xlink" width="2000" zoomAndPan="magnify" viewBox="0 0 1500 1499.999933" height="2000" preserveAspectRatio="xMidYMid meet" version="1.0"><defs><clipPath id="c7025564a4"><path d="M 543 171 L 1369.6875 171 L 1369.6875 1500 L 543 1500 Z M 543 171 " clip-rule="nonzero"/></clipPath><clipPath id="ff48c2f862"><path d="M 1358.4375 0 L 141.5625 0 C 135.347656 0 130.3125 5.035156 130.3125 11.25 L 130.3125 1488.75 C 130.3125 1494.964844 135.347656 1500 141.5625 1500 L 1358.4375 1500 C 1361.421875 1500 1364.28125 1498.816406 1366.390625 1496.703125 C 1368.503906 1494.59375 1369.6875 1491.734375 1369.6875 1488.75 L 1369.6875 11.25 C 1369.6875 5.035156 1364.652344 0 1358.4375 0 Z M 1358.4375 0 " clip-rule="nonzero"/></clipPath><clipPath id="7aaf4da694"><path d="M 130 0 L 957 0 L 957 1329 L 130 1329 Z M 130 0 " clip-rule="nonzero"/></clipPath><clipPath id="9a01e5faaf"><path d="M 1358.4375 0 L 141.5625 0 C 135.347656 0 130.3125 5.035156 130.3125 11.25 L 130.3125 1488.75 C 130.3125 1494.964844 135.347656 1500 141.5625 1500 L 1358.4375 1500 C 1361.421875 1500 1364.28125 1498.816406 1366.390625 1496.703125 C 1368.503906 1494.59375 1369.6875 1491.734375 1369.6875 1488.75 L 1369.6875 11.25 C 1369.6875 5.035156 1364.652344 0 1358.4375 0 Z M 1358.4375 0 " clip-rule="nonzero"/></clipPath></defs><g clip-path="url(#c7025564a4)"><g clip-path="url(#ff48c2f862)"><path fill="#ff8c42" d="M 1151.410156 1086.523438 L 543.425781 735.5 L 543.425781 1023.019531 L 1369.710938 1500.082031 L 1369.710938 171.550781 L 1151.410156 171.550781 L 1151.410156 1086.523438 " fill-opacity="1" fill-rule="nonzero"/></g></g><g clip-path="url(#7aaf4da694)"><g clip-path="url(#9a01e5faaf)"><path fill="#ffb347" d="M 130.289062 -0.0820312 L 130.289062 1328.449219 L 348.589844 1328.449219 L 348.589844 413.476562 L 956.5625 764.5 L 956.5625 476.980469 L 130.289062 -0.0820312 " fill-opacity="1" fill-rule="nonzero"/></g></g></svg>